<?xml version="1.0" encoding="utf-8"?>
<!-- Generator: Adobe Illustrator 24.1.1, SVG Export Plug-In . SVG Version: 6.00 Build 0)  -->
<svg version="1.1" id="Layer_1" xmlns="http://www.w3.org/2000/svg" xmlns:xlink="http://www.w3.org/1999/xlink" x="0px" y="0px"
	 viewBox="0 0 395.9 512" style="enable-background:new 0 0 395.9 512;" xml:space="preserve">
<style type="text/css">
	.st0{fill:#FF0000;}
</style>
<g>
	<g>
		<path class="st0" d="M347.5,150.6c12.5-12.5,12.5-32.8,0-45.3s-32.8-12.5-45.3,0L196.9,210.7L91.5,105.4
			c-12.5-12.5-32.8-12.5-45.3,0s-12.5,32.8,0,45.3L151.6,256L46.3,361.4c-12.5,12.5-12.5,32.8,0,45.3s32.8,12.5,45.3,0l105.3-105.4
			l105.4,105.3c12.5,12.5,32.8,12.5,45.3,0s12.5-32.8,0-45.3L242.2,256L347.5,150.6z"/>
	</g>
</g>
</svg>
